<?xml version="1.0" encoding="utf-8"?>
<!-- Generator: Adobe Illustrator 24.0.0, SVG Export Plug-In . SVG Version: 6.00 Build 0)  -->
<svg version="1.1" id="Layer_1" xmlns="http://www.w3.org/2000/svg" xmlns:xlink="http://www.w3.org/1999/xlink" x="0px" y="0px"
	 viewBox="0 0 2022 2010" style="enable-background:new 0 0 2022 2010;" xml:space="preserve">
<g>
	<g>
		<g>
			<path d="M1244.39,966.12c0,0.03-0.03,0.03-0.03,0.03l-2.59-2.59L1244.39,966.12z M1244.39,966.12c0,0.03-0.03,0.03-0.03,0.03
				l-2.59-2.59L1244.39,966.12z M937.28,1002.82l-26.53-26.53l-76.4,76.4l26.53,26.53L937.28,1002.82z M1016.77,1026.98l91.64,91.63
				l26.53-26.53l-119.49-119.5L904.76,1094.7l27.8,25.2L1016.77,1026.98z M1206.55,1047.84l-180.84-174.12l-26.02,27.03
				l180.84,174.12L1206.55,1047.84z M1114.64,833.03l-95.41-95.41l-91.71,95.69l27.09,25.96l65.19-68.02l68.31,68.31L1114.64,833.03
				z M1232.59,1007.46l2.87,2.86l0.03-0.03L1232.59,1007.46z M1017.81,564.91c-159.86,0-289.92,130.05-289.92,289.92
				c0,52.97,14.33,104.54,41.58,149.67c0.03,0.14,0.14,0.27,0.2,0.41c5.12,8.97,10.71,17.63,16.75,25.96l16.37-16.75l9.31-9.55
				l36.94-37.79l47.55-49.05l0.17,0.2l54.61,57.27l27.15-25.85l-81.65-85.78L793.31,970.32c-18.32-35.57-27.9-75.07-27.9-115.49
				c0-139.16,113.24-252.4,252.4-252.4s252.4,113.24,252.4,252.4c0,38.2-8.6,75.65-25.04,109.69c-0.24,0.55-0.51,1.09-0.78,1.6
				c0,0.03-0.03,0.03-0.03,0.03l-2.59-2.59l-63.65-63.65l-39.6-39.6l-26.54,26.54l66.14,66.14l54.47,54.47l2.9,2.83l17.22,16.71
				l1.16-1.6c7.27-10.16,13.88-20.77,19.65-31.55c12.86-24.05,22.1-49.8,27.49-76.61l0.31-1.53c4.23-19.89,6.41-40.28,6.41-60.88
				C1307.73,694.96,1177.68,564.91,1017.81,564.91z"/>
		</g>
		<g>
			<path d="M657.89,1262.37c7.49,4.3,18.71,8.05,30.5,8.05c14.78,0,23.02-6.92,23.02-17.22c0-9.54-6.36-15.16-22.45-20.96
				c-20.77-7.48-34.06-18.52-34.06-36.67c0-20.58,17.21-36.3,44.53-36.3c13.66,0,23.76,2.99,30.31,6.36l-5.61,18.53
				c-4.49-2.43-13.29-5.99-25.07-5.99c-14.6,0-20.96,7.86-20.96,15.16c0,9.73,7.3,14.22,24.14,20.77
				c21.89,8.23,32.56,19.27,32.56,37.42c0,20.21-15.34,37.8-47.9,37.8c-13.29,0-27.13-3.74-34.06-7.86L657.89,1262.37z"/>
			<path d="M778.58,1161.33v50.52h53.33v-50.52h23.02v126.12h-23.02v-55.57h-53.33v55.57h-23.02v-126.12H778.58z"/>
			<path d="M906.57,1251.71l-10.85,35.74h-23.76l40.42-126.12h29.38l40.98,126.12h-24.7l-11.41-35.74H906.57z M942.69,1234.3
				l-9.92-31.06c-2.43-7.67-4.49-16.28-6.36-23.58h-0.37c-1.87,7.3-3.74,16.09-5.99,23.58l-9.73,31.06H942.69z"/>
			<path d="M1000.32,1163.01c8.61-1.5,21.52-2.62,34.8-2.62c18.15,0,30.5,2.99,38.92,10.1c6.92,5.8,10.85,14.6,10.85,25.26
				c0,16.28-11.04,27.32-22.83,31.62v0.56c8.98,3.37,14.41,12.16,17.59,24.33c3.93,15.72,7.3,30.31,9.92,35.18h-23.76
				c-1.87-3.74-4.87-14.03-8.42-29.75c-3.55-16.47-9.54-21.71-22.64-22.08h-11.6v51.83h-22.83V1163.01z M1023.15,1218.77h13.66
				c15.53,0,25.26-8.23,25.26-20.77c0-13.85-9.73-20.21-24.7-20.21c-7.3,0-11.98,0.56-14.22,1.12V1218.77z"/>
			<path d="M1218.68,1223.08c0,42.29-25.64,66.43-60.44,66.43c-35.55,0-58.01-27.13-58.01-64.18c0-38.73,24.33-66.05,59.88-66.05
				C1196.98,1159.27,1218.68,1187.15,1218.68,1223.08z M1124.56,1224.95c0,25.64,12.91,46.03,34.99,46.03
				c22.27,0,34.8-20.58,34.8-46.97c0-23.76-11.79-46.22-34.8-46.22C1136.72,1177.79,1124.56,1198.94,1124.56,1224.95z"/>
			<path d="M1238.52,1287.45v-126.12h26.2l32.56,54.08c8.42,14.03,15.72,28.63,21.52,42.29h0.37c-1.5-16.84-2.06-33.12-2.06-52.39
				v-43.97h21.33v126.12h-23.76l-32.93-55.39c-8.05-13.85-16.47-29.38-22.64-43.6l-0.56,0.19c0.94,16.28,1.12,32.93,1.12,53.7v45.1
				H1238.52z"/>
		</g>
		<g>
			<path d="M758.71,1320.9h20.79v4.18h-15.81v12.83h14.61v4.12h-14.61v17.47h-4.98V1320.9z"/>
			<path d="M806.59,1341.41h-15.01v13.92h16.73v4.18H786.6v-38.61h20.85v4.18h-15.87v12.2h15.01V1341.41z"/>
			<path d="M814.79,1320.9h4.98v34.43h16.5v4.18h-21.48V1320.9z"/>
			<path d="M841.82,1320.9h4.98v34.43h16.5v4.18h-21.48V1320.9z"/>
			<path d="M899.62,1339.8c0,13.29-8.08,20.33-17.93,20.33c-10.2,0-17.36-7.9-17.36-19.59c0-12.26,7.62-20.28,17.93-20.28
				C892.8,1320.27,899.62,1328.35,899.62,1339.8z M869.66,1340.43c0,8.25,4.47,15.64,12.32,15.64c7.9,0,12.37-7.28,12.37-16.04
				c0-7.68-4.01-15.7-12.32-15.7C873.78,1324.34,869.66,1331.95,869.66,1340.43z"/>
			<path d="M912.39,1359.51l-9.79-38.61h5.27l4.58,19.53c1.15,4.81,2.18,9.62,2.86,13.35h0.11c0.63-3.84,1.83-8.42,3.15-13.4
				l5.16-19.48h5.21l4.7,19.59c1.09,4.58,2.12,9.17,2.69,13.23h0.12c0.8-4.24,1.89-8.54,3.09-13.35l5.1-19.48h5.1l-10.94,38.61
				h-5.21l-4.87-20.11c-1.2-4.93-2-8.71-2.52-12.6h-0.11c-0.69,3.84-1.55,7.62-2.98,12.6l-5.5,20.11H912.39z"/>
			<path d="M953.86,1353.43c2.23,1.38,5.5,2.52,8.94,2.52c5.1,0,8.08-2.69,8.08-6.59c0-3.61-2.06-5.67-7.27-7.68
				c-6.3-2.23-10.2-5.5-10.2-10.94c0-6.01,4.98-10.48,12.49-10.48c3.95,0,6.82,0.92,8.54,1.89l-1.38,4.07
				c-1.26-0.69-3.84-1.83-7.33-1.83c-5.27,0-7.27,3.15-7.27,5.79c0,3.61,2.35,5.38,7.67,7.45c6.53,2.52,9.85,5.67,9.85,11.34
				c0,5.96-4.41,11.11-13.52,11.11c-3.72,0-7.79-1.09-9.85-2.46L953.86,1353.43z"/>
			<path d="M987.77,1320.9v16.15h18.67v-16.15h5.04v38.61h-5.04v-18.1h-18.67v18.1h-4.98v-38.61H987.77z"/>
			<path d="M1025.12,1320.9v38.61h-4.98v-38.61H1025.12z"/>
			<path d="M1033.82,1321.36c2.41-0.4,5.56-0.75,9.57-0.75c4.93,0,8.54,1.15,10.83,3.21c2.12,1.83,3.38,4.64,3.38,8.08
				c0,3.49-1.03,6.24-2.98,8.25c-2.63,2.81-6.93,4.24-11.8,4.24c-1.49,0-2.86-0.06-4.01-0.34v15.47h-4.98V1321.36z M1038.81,1339.97
				c1.09,0.29,2.46,0.4,4.12,0.4c6.01,0,9.68-2.92,9.68-8.25c0-5.1-3.61-7.56-9.11-7.56c-2.18,0-3.84,0.17-4.7,0.4V1339.97z"/>
			<path d="M1103.42,1358.25c-1.83,0.92-5.5,1.83-10.2,1.83c-10.88,0-19.07-6.87-19.07-19.53c0-12.09,8.19-20.28,20.16-20.28
				c4.81,0,7.85,1.03,9.17,1.72l-1.2,4.07c-1.89-0.92-4.58-1.6-7.79-1.6c-9.05,0-15.07,5.79-15.07,15.92
				c0,9.45,5.44,15.52,14.84,15.52c3.04,0,6.13-0.63,8.13-1.6L1103.42,1358.25z"/>
			<path d="M1114.64,1320.9v16.15h18.67v-16.15h5.04v38.61h-5.04v-18.1h-18.67v18.1h-4.98v-38.61H1114.64z"/>
			<path d="M1151.99,1320.9v22.86c0,8.65,3.84,12.32,8.99,12.32c5.73,0,9.39-3.78,9.39-12.32v-22.86h5.04v22.51
				c0,11.86-6.24,16.73-14.61,16.73c-7.91,0-13.86-4.53-13.86-16.5v-22.74H1151.99z"/>
			<path d="M1184.07,1321.42c2.52-0.52,6.13-0.8,9.57-0.8c5.33,0,8.76,0.97,11.17,3.15c1.95,1.72,3.04,4.35,3.04,7.33
				c0,5.1-3.21,8.48-7.27,9.85v0.17c2.98,1.03,4.75,3.78,5.67,7.79c1.26,5.38,2.18,9.11,2.98,10.6h-5.16
				c-0.63-1.09-1.49-4.41-2.58-9.22c-1.15-5.33-3.21-7.33-7.73-7.5h-4.7v16.73h-4.98V1321.42z M1189.05,1339h5.1
				c5.33,0,8.71-2.92,8.71-7.33c0-4.98-3.61-7.16-8.88-7.22c-2.41,0-4.12,0.23-4.93,0.46V1339z"/>
			<path d="M1242.04,1358.25c-1.83,0.92-5.5,1.83-10.2,1.83c-10.88,0-19.07-6.87-19.07-19.53c0-12.09,8.19-20.28,20.16-20.28
				c4.81,0,7.85,1.03,9.17,1.72l-1.2,4.07c-1.89-0.92-4.58-1.6-7.79-1.6c-9.05,0-15.07,5.79-15.07,15.92
				c0,9.45,5.44,15.52,14.84,15.52c3.04,0,6.13-0.63,8.13-1.6L1242.04,1358.25z"/>
			<path d="M1253.26,1320.9v16.15h18.67v-16.15h5.04v38.61h-5.04v-18.1h-18.67v18.1h-4.98v-38.61H1253.26z"/>
		</g>
	</g>
</g>
</svg>
